<?xml version="1.0" encoding="UTF-8"?>
<svg width="104px" height="25px" viewBox="0 0 104 25" version="1.1" xmlns="http://www.w3.org/2000/svg" xmlns:xlink="http://www.w3.org/1999/xlink">
    <!-- Generator: Sketch 48.2 (47327) - http://www.bohemiancoding.com/sketch -->
    <title>goods-mark copy</title>
    <desc>Created with Sketch.</desc>
    <defs></defs>
    <g id="Global-/-Nav-/-Grey-bg" stroke="none" stroke-width="1" fill="none" fill-rule="evenodd" transform="translate(-135.000000, -18.000000)">
        <g id="goods-mark-copy" transform="translate(107.000000, 15.000000)">
            <path d="M32.0847397,15.749589 C32.0847397,17.8911523 32.9499183,18.9619178 34.6803014,18.9619178 C35.074349,18.9619178 35.4426924,18.9105211 35.7853425,18.807726 C36.1279926,18.704931 36.4192408,18.5850053 36.6590959,18.4479452 L36.6590959,12.3316712 C36.4706383,12.2974062 36.2479191,12.2674248 35.9909315,12.241726 C35.7339439,12.2160273 35.4341296,12.2031781 35.0914795,12.2031781 C34.0806616,12.2031781 33.3268427,12.5372569 32.83,13.2054247 C32.3331573,13.8735924 32.0847397,14.7216387 32.0847397,15.749589 Z M40.4881918,21.2490959 C40.4881918,23.4591891 39.9271106,25.099602 38.8049315,26.1703836 C37.6827524,27.2411652 35.9481122,27.7765479 33.6009589,27.7765479 C32.7785986,27.7765479 31.9562507,27.7037359 31.1338904,27.5581096 C30.3115301,27.4124833 29.5491451,27.2197455 28.8467123,26.9798904 L29.5148767,23.7675616 C30.1145144,24.0074167 30.7441246,24.1958715 31.403726,24.3329315 C32.0633275,24.4699916 32.8128634,24.5385205 33.6523562,24.5385205 C34.7488365,24.5385205 35.5240708,24.2986691 35.9780822,23.8189589 C36.4320936,23.3392487 36.6590959,22.7224878 36.6590959,21.9686575 L36.6590959,21.4803836 C36.2479158,21.6688411 35.8238926,21.8101822 35.3870137,21.904411 C34.9501348,21.9986397 34.4747149,22.0457534 33.9607397,22.0457534 C32.0932966,22.0457534 30.6627538,21.4932384 29.6690685,20.3881918 C28.6753832,19.2831452 28.1785479,17.7369597 28.1785479,15.749589 C28.1785479,14.7559037 28.3327382,13.8521776 28.6411233,13.0383836 C28.9495084,12.2245895 29.3992299,11.5264504 29.9903014,10.9439452 C30.5813728,10.36144 31.3052103,9.91171848 32.1618356,9.59476712 C33.0184609,9.27781577 33.986433,9.11934247 35.0657808,9.11934247 C35.5283585,9.11934247 36.0037784,9.14075778 36.4920548,9.18358904 C36.9803312,9.22642031 37.4643172,9.28210011 37.9440274,9.35063014 C38.4237376,9.41916016 38.8820252,9.50053834 39.3189041,9.59476712 C39.755783,9.6889959 40.1455417,9.78750634 40.4881918,9.89030137 L40.4881918,21.2490959 Z M54.8941096,16.1607671 C54.8941096,17.2229825 54.7399194,18.1952376 54.4315342,19.0775616 C54.1231491,19.9598857 53.6777107,20.7137046 53.0952055,21.3390411 C52.5127003,21.9643776 51.8145611,22.4483636 51.0007671,22.7910137 C50.1869731,23.1336638 49.2746809,23.3049863 48.263863,23.3049863 C47.2701777,23.3049863 46.3664516,23.1336638 45.5526575,22.7910137 C44.7388635,22.4483636 44.0407244,21.9643776 43.4582192,21.3390411 C42.875714,20.7137046 42.4217094,19.9598857 42.0961918,19.0775616 C41.7706742,18.1952376 41.6079178,17.2229825 41.6079178,16.1607671 C41.6079178,15.0985518 41.7749572,14.1305797 42.1090411,13.2568219 C42.443125,12.3830641 42.9056957,11.6378113 43.4967671,11.0210411 C44.0878386,10.4042709 44.7902608,9.92456792 45.6040548,9.58191781 C46.4178488,9.23926769 47.3044427,9.06794521 48.263863,9.06794521 C49.2404158,9.06794521 50.1355758,9.23926769 50.9493699,9.58191781 C51.7631639,9.92456792 52.461303,10.4042709 53.0438082,11.0210411 C53.6263134,11.6378113 54.080318,12.3830641 54.4058356,13.2568219 C54.7313532,14.1305797 54.8941096,15.0985518 54.8941096,16.1607671 Z M50.9879178,16.1607671 C50.9879178,14.9786242 50.7523494,14.0491997 50.2812055,13.3724658 C49.8100616,12.6957318 49.1376208,12.3573699 48.263863,12.3573699 C47.3901052,12.3573699 46.7133814,12.6957318 46.2336712,13.3724658 C45.7539611,14.0491997 45.5141096,14.9786242 45.5141096,16.1607671 C45.5141096,17.34291 45.7539611,18.2809006 46.2336712,18.9747671 C46.7133814,19.6686336 47.3901052,20.0155616 48.263863,20.0155616 C49.1376208,20.0155616 49.8100616,19.6686336 50.2812055,18.9747671 C50.7523494,18.2809006 50.9879178,17.34291 50.9879178,16.1607671 Z M68.6575616,16.1607671 C68.6575616,17.2229825 68.5033714,18.1952376 68.1949863,19.0775616 C67.8866012,19.9598857 67.4411627,20.7137046 66.8586575,21.3390411 C66.2761523,21.9643776 65.5780132,22.4483636 64.7642192,22.7910137 C63.9504252,23.1336638 63.0381329,23.3049863 62.0273151,23.3049863 C61.0336297,23.3049863 60.1299036,23.1336638 59.3161096,22.7910137 C58.5023156,22.4483636 57.8041764,21.9643776 57.2216712,21.3390411 C56.639166,20.7137046 56.1851614,19.9598857 55.8596438,19.0775616 C55.5341262,18.1952376 55.3713699,17.2229825 55.3713699,16.1607671 C55.3713699,15.0985518 55.5384093,14.1305797 55.8724932,13.2568219 C56.206577,12.3830641 56.6691477,11.6378113 57.2602192,11.0210411 C57.8512906,10.4042709 58.5537128,9.92456792 59.3675068,9.58191781 C60.1813009,9.23926769 61.0678947,9.06794521 62.0273151,9.06794521 C63.0038679,9.06794521 63.8990279,9.23926769 64.7128219,9.58191781 C65.5266159,9.92456792 66.2247551,10.4042709 66.8072603,11.0210411 C67.3897655,11.6378113 67.8437701,12.3830641 68.1692877,13.2568219 C68.4948053,14.1305797 68.6575616,15.0985518 68.6575616,16.1607671 Z M64.7513699,16.1607671 C64.7513699,14.9786242 64.5158014,14.0491997 64.0446575,13.3724658 C63.5735136,12.6957318 62.9010729,12.3573699 62.0273151,12.3573699 C61.1535573,12.3573699 60.4768334,12.6957318 59.9971233,13.3724658 C59.5174131,14.0491997 59.2775616,14.9786242 59.2775616,16.1607671 C59.2775616,17.34291 59.5174131,18.2809006 59.9971233,18.9747671 C60.4768334,19.6686336 61.1535573,20.0155616 62.0273151,20.0155616 C62.9010729,20.0155616 63.5735136,19.6686336 64.0446575,18.9747671 C64.5158014,18.2809006 64.7513699,17.34291 64.7513699,16.1607671 Z M73.0410137,16.0836712 C73.0410137,17.2658141 73.3065636,18.2166539 73.8376712,18.9362192 C74.3687789,19.6557844 75.1568624,20.0155616 76.2019452,20.0155616 C76.5445953,20.0155616 76.8615419,20.0027125 77.1527945,19.9770137 C77.4440471,19.9513149 77.6838986,19.9213335 77.8723562,19.8870685 L77.8723562,12.9227397 C77.6325011,12.7685472 77.3198375,12.6400553 76.9343562,12.5372603 C76.5488748,12.4344652 76.1591161,12.3830685 75.7650685,12.3830685 C73.9490229,12.3830685 73.0410137,13.6165904 73.0410137,16.0836712 Z M81.7014521,22.5083288 C81.3588019,22.6111238 80.9647602,22.7096342 80.5193151,22.803863 C80.0738699,22.8980918 79.6070161,22.97947 79.1187397,23.048 C78.6304633,23.11653 78.1336281,23.1722098 77.6282192,23.2150411 C77.1228103,23.2578724 76.6388242,23.2792877 76.1762466,23.2792877 C75.0626337,23.2792877 74.0689633,23.1165313 73.1952055,22.7910137 C72.3214477,22.4654961 71.584761,21.9986423 70.9851233,21.3904384 C70.3854856,20.7822344 69.9271979,20.0455477 69.6102466,19.1803562 C69.2932952,18.3151646 69.1348219,17.3429095 69.1348219,16.2635616 C69.1348219,15.1670813 69.2718799,14.1776939 69.546,13.2953699 C69.8201201,12.4130458 70.2141618,11.6635099 70.728137,11.0467397 C71.2421122,10.4299695 71.8717223,9.95883268 72.6169863,9.63331507 C73.3622503,9.30779746 74.2145797,9.1450411 75.174,9.1450411 C75.7051077,9.1450411 76.1805276,9.19643784 76.600274,9.29923288 C77.0200204,9.40202791 77.4440435,9.54765203 77.8723562,9.73610959 L77.8723562,3.61983562 L81.7014521,3.00306849 L81.7014521,22.5083288 Z M87.344137,20.1954521 C88.0465697,20.1954521 88.5434049,20.1269231 88.8346575,19.989863 C89.1259101,19.852803 89.2715342,19.5872531 89.2715342,19.1932055 C89.2715342,18.8848204 89.0830795,18.6149875 88.7061644,18.3836986 C88.3292493,18.1524098 87.7553189,17.891143 86.9843562,17.5998904 C86.3847185,17.3771678 85.8407696,17.1458825 85.3524932,16.9060274 C84.8642167,16.6661723 84.4487597,16.3792071 84.1061096,16.0451233 C83.7634595,15.7110394 83.4979096,15.3127146 83.3094521,14.850137 C83.1209945,14.3875593 83.0267671,13.8307612 83.0267671,13.179726 C83.0267671,11.9119206 83.497904,10.909684 84.4401918,10.1729863 C85.3824796,9.43628855 86.6759644,9.06794521 88.3206849,9.06794521 C89.1430452,9.06794521 89.9311287,9.14075726 90.6849589,9.28638356 C91.4387892,9.43200986 92.0384179,9.59048316 92.483863,9.76180822 L91.8156986,12.7428493 C91.3702535,12.5886568 90.8862675,12.4515988 90.363726,12.3316712 C89.8411846,12.2117437 89.2544051,12.1517808 88.6033699,12.1517808 C87.4040945,12.1517808 86.8044658,12.4858597 86.8044658,13.1540274 C86.8044658,13.3082199 86.8301641,13.4452779 86.8815616,13.5652055 C86.9329592,13.685133 87.0357527,13.8007757 87.1899452,13.912137 C87.3441378,14.0234983 87.5540078,14.143424 87.8195616,14.2719178 C88.0851155,14.4004116 88.4234774,14.5417527 88.8346575,14.6959452 C89.6741503,15.0043303 90.3680064,15.3084277 90.9162466,15.6082466 C91.4644868,15.9080654 91.897076,16.2335782 92.2140274,16.5847945 C92.5309788,16.9360109 92.753698,17.3257695 92.8821918,17.7540822 C93.0106856,18.1823948 93.0749315,18.67923 93.0749315,19.2446027 C93.0749315,20.5809382 92.5738132,21.5917409 91.5715616,22.2770411 C90.5693101,22.9623413 89.1516165,23.3049863 87.3184384,23.3049863 C86.119163,23.3049863 85.1212095,23.2021928 84.3245479,22.9966027 C83.5278864,22.7910127 82.9753714,22.6196902 82.6669863,22.4826301 L83.3094521,19.3730959 C83.9604873,19.6300835 84.628645,19.8313874 85.3139452,19.9770137 C85.9992454,20.12264 86.6759693,20.1954521 87.344137,20.1954521 Z" id="goods" fill="#10203F"></path>
            <path d="M103.295644,21.4895616 C105.56263,21.4895616 107.352356,20.1532329 107.352356,18.2203288 L107.352356,17.0987671 C106.469425,16.812411 105.276274,16.5499178 103.82063,16.5499178 C101.553644,16.5499178 100.265041,17.5283014 100.265041,19.0555342 L100.265041,19.1032603 C100.265041,20.6066301 101.649096,21.4895616 103.295644,21.4895616 Z M102.794521,23.2315616 C100.384356,23.2315616 98.0457808,21.8475068 98.0457808,19.2225753 L98.0457808,19.1748493 C98.0457808,16.4306027 100.288904,14.9988219 103.510411,14.9988219 C105.109233,14.9988219 106.206932,15.213589 107.328493,15.5476712 L107.328493,15.118137 C107.328493,12.9704658 105.992164,11.8250411 103.677452,11.8250411 C102.174082,11.8250411 101.004795,12.1829863 99.8355068,12.7318356 L99.1912055,10.9421096 C100.599123,10.2978082 102.007041,9.84441096 103.939945,9.84441096 C105.80126,9.84441096 107.209178,10.3455342 108.139836,11.2761918 C109.04663,12.1829863 109.476164,13.471589 109.476164,15.118137 L109.476164,22.9452055 L107.30463,22.9452055 L107.30463,21.1077534 C106.421699,22.2293151 104.989918,23.2315616 102.794521,23.2315616 Z M119.514958,21.2509315 C121.877396,21.2509315 123.8103,19.4612055 123.8103,16.5260548 L123.8103,16.4783288 C123.8103,13.5909041 121.82967,11.729589 119.514958,11.729589 C117.247971,11.729589 115.124163,13.6386301 115.124163,16.4544658 L115.124163,16.5021918 C115.124163,19.3418904 117.247971,21.2509315 119.514958,21.2509315 Z M112.952629,26.9064658 L112.952629,10.0353151 L115.195752,10.0353151 L115.195752,12.4932055 C116.221862,10.9898356 117.701368,9.7489589 119.992218,9.7489589 C123.046684,9.7489589 126.101149,12.2068493 126.101149,16.4544658 L126.101149,16.5021918 C126.101149,20.7498082 123.070547,23.2315616 119.992218,23.2315616 C117.653642,23.2315616 116.174136,21.9906849 115.195752,20.6066301 L115.195752,26.9064658 L112.952629,26.9064658 Z M129.100353,7.45810959 L129.100353,5.11953425 L131.60597,5.11953425 L131.60597,7.45810959 L129.100353,7.45810959 Z M129.243531,22.9452055 L129.243531,10.0353151 L131.462792,10.0353151 L131.462792,22.9452055 L129.243531,22.9452055 Z" id="api" fill="#2CBFA4"></path>
        </g>
    </g>
</svg>